<?xml version="1.0" encoding="UTF-8"?>
<svg id="Layer_1" data-name="Layer 1" xmlns="http://www.w3.org/2000/svg" viewBox="0 0 2000 200">
  <defs>
    <style>
      .cls-1 {
        fill: #181818;
      }
    </style>
  </defs>
  <polygon class="cls-1" points="1900 .01 1800 .01 1700 .01 1600 .01 1500 .01 1400 .01 1300 .01 1200 .01 1100 .01 1000 .01 900 .01 800 .01 700 .01 600 .01 600 .02 500 .02 400 .02 400 .01 300 .01 200 .01 100 .01 100 .02 0 .02 0 50.02 100 50.02 100 100.01 200 100.01 200 150.01 300 150.01 300 100.01 400 100.01 400 200 500 200 500 150.01 600 150.01 600 100.01 700 100.01 700 50.01 800 50.01 800 100.01 900 100.01 900 150.01 1000 150.01 1000 100.01 1100 100.01 1100 150.01 1200 150.01 1200 200 1300 200 1300 100.01 1400 100.01 1400 150.01 1500 150.01 1500 100.01 1600 100.01 1600 50.01 1700 50.01 1700 150.01 1800 150.01 1800 100.01 1900 100.01 1900 50.01 2000 50.01 2000 .01 1900 .01"/>
</svg>